<svg xmlns="http://www.w3.org/2000/svg" width="94" height="32" viewBox="0 0 94 32">
    <g fill="none" fill-rule="evenodd">
        <g>
            <g>
                <g>
                    <path fill="#000" fill-rule="nonzero" d="M18.89 4.032v6.048h3.745l1.8 5.04H18.89v6.804c0 .56.028 1.071.084 1.533.056.462.182.861.378 1.197.196.336.497.595.903.777.406.182.945.273 1.617.273.336 0 .777-.035 1.323-.105.546-.07.959-.231 1.239-.483v5.25c-.7.252-1.428.42-2.184.504-.756.084-1.498.126-2.226.126-1.064 0-2.044-.112-2.94-.336-.896-.224-1.68-.581-2.352-1.071-.672-.49-1.197-1.127-1.575-1.911-.378-.784-.567-1.736-.567-2.856V15.12H8.559v-5.04h4.032V4.032h6.3zM6.805 10.08v20.412h-6.3V10.08h6.3zm24.9 0l4.157 12.81h.084l3.486-12.81h6.888l3.78 12.81h.084l3.822-12.81h6.384c-1.072.498-2.02 1.132-2.85 1.914-1.022.963-1.827 2.121-2.415 3.473-.588 1.351-.882 2.861-.882 4.529 0 1.668.294 3.178.882 4.53l.069.151-2.07 5.815h-6.216l-4.242-13.566h-.084l-3.78 13.566H32.46L24.983 10.08h6.72zm45.839 0l3.612 5.544 3.486-5.544h7.014l-6.636 9.492 7.854 10.92h-7.434l-4.452-6.804-4.788 6.804h-7.006c.277-.08.55-.172.82-.272 1.386-.518 2.59-1.259 3.612-2.222 1.022-.963 1.827-2.121 2.415-3.473.588-1.351.882-2.861.882-4.529 0-1.668-.294-3.178-.882-4.53-.588-1.351-1.393-2.509-2.415-3.472-.834-.787-1.79-1.425-2.867-1.914h6.785zM3.654 0c1.008 0 1.869.357 2.583 1.071.714.714 1.071 1.575 1.071 2.583 0 1.008-.357 1.869-1.071 2.583-.714.714-1.575 1.071-2.583 1.071-1.008 0-1.869-.357-2.583-1.071C.357 5.523 0 4.662 0 3.654c0-1.008.357-1.869 1.071-2.583C1.785.357 2.646 0 3.654 0z" transform="translate(-240.000000, -39.000000) translate(240.157817, 39.024000) translate(-0.000000, 0.000000)"/>
                    <path fill="#8F2175" d="M65.4 13.6L71.116 16.9 71.116 23.5 65.4 26.8 59.684 23.5 59.684 16.9z" transform="translate(-240.000000, -39.000000) translate(240.157817, 39.024000) translate(-0.000000, 0.000000)"/>
                </g>
            </g>
        </g>
    </g>
</svg>
